{
  "accessors": [
    {
      "bufferView": 2,
      "componentType": 5126,
      "count": 65532,
      "max": [
        378.155029296875,
        1053.826904296875,
        452.7584533691406
      ],
      "min": [
        -380.6107482910156,
        365.3254699707031,
        -283.3804626464844
      ],
      "type": "VEC3"
    },
    {
      "bufferView": 2,
      "byteOffset": 786384,
      "componentType": 5126,
      "count": 65532,
      "max": [
        0.9999507665634155,
        0.9999718070030212,
        0.9999474883079529
      ],
      "min": [
        -0.9999253749847412,
        -0.9999510645866394,
        -0.9999147653579712
      ],
      "type": "VEC3"
    },
    {
      "bufferView": 1,
      "componentType": 5126,
      "count": 65532,
      "max": [
        1.0,
        1.0
      ],
      "min": [
        0.5,
        -1.0
      ],
      "type": "VEC2"
    },
    {
      "bufferView": 0,
      "componentType": 5125,
      "count": 275214,
      "type": "SCALAR"
    },
    {
      "bufferView": 2,
      "byteOffset": 1572768,
      "componentType": 5126,
      "count": 65532,
      "max": [
        400.751220703125,
        1005.8880615234375,
        395.67041015625
      ],
      "min": [
        -344.862548828125,
        -0.1478927582502365,
        -442.7535095214844
      ],
      "type": "VEC3"
    },
    {
      "bufferView": 2,
      "byteOffset": 2359152,
      "componentType": 5126,
      "count": 65532,
      "max": [
        0.9999430775642395,
        0.9999158978462219,
        0.999987006187439
      ],
      "min": [
        -0.999984622001648,
        -0.9999402761459351,
        -0.9999328255653381
      ],
      "type": "VEC3"
    },
    {
      "bufferView": 1,
      "byteOffset": 524256,
      "componentType": 5126,
      "count": 65532,
      "max": [
        1.0,
        1.0
      ],
      "min": [
        0.0,
        -2.0
      ],
      "type": "VEC2"
    },
    {
      "bufferView": 0,
      "byteOffset": 1100856,
      "componentType": 5125,
      "count": 278133,
      "type": "SCALAR"
    },
    {
      "bufferView": 2,
      "byteOffset": 3145536,
      "componentType": 5126,
      "count": 65532,
      "max": [
        450.3656921386719,
        934.9920654296875,
        372.583740234375
      ],
      "min": [
        -383.4535217285156,
        339.9213562011719,
        -483.04541015625
      ],
      "type": "VEC3"
    },
    {
      "bufferView": 2,
      "byteOffset": 3931920,
      "componentType": 5126,
      "count": 65532,
      "max": [
        0.9999912977218628,
        0.9999312162399292,
        0.9999769330024719
      ],
      "min": [
        -0.999984085559845,
        -0.9999417662620544,
        -0.9999684691429138
      ],
      "type": "VEC3"
    },
    {
      "bufferView": 1,
      "byteOffset": 1048512,
      "componentType": 5126,
      "count": 65532,
      "max": [
        1.0,
        1.0
      ],
      "min": [
        0.5,
        -1.0
      ],
      "type": "VEC2"
    },
    {
      "bufferView": 0,
      "byteOffset": 2213388,
      "componentType": 5125,
      "count": 275166,
      "type": "SCALAR"
    },
    {
      "bufferView": 2,
      "byteOffset": 4718304,
      "componentType": 5126,
      "count": 16985,
      "max": [
        172.22193908691406,
        1015.3705444335938,
        199.67578125
      ],
      "min": [
        -209.66697692871094,
        698.7401733398438,
        -312.6585693359375
      ],
      "type": "VEC3"
    },
    {
      "bufferView": 2,
      "byteOffset": 4922124,
      "componentType": 5126,
      "count": 16985,
      "max": [
        0.9998965263366699,
        0.9999955892562866,
        0.9999111294746399
      ],
      "min": [
        -0.9997853636741638,
        -0.9999958276748657,
        -0.9999898076057434
      ],
      "type": "VEC3"
    },
    {
      "bufferView": 1,
      "byteOffset": 1572768,
      "componentType": 5126,
      "count": 16985,
      "max": [
        1.0,
        1.0
      ],
      "min": [
        0.5,
        -1.0
      ],
      "type": "VEC2"
    },
    {
      "bufferView": 0,
      "byteOffset": 3314052,
      "componentType": 5125,
      "count": 71307,
      "type": "SCALAR"
    },
    {
      "bufferView": 2,
      "byteOffset": 5125944,
      "componentType": 5126,
      "count": 65532,
      "max": [
        397.1897277832031,
        1055.817626953125,
        363.8259582519531
      ],
      "min": [
        -200.16873168945313,
        317.53369140625,
        -491.8769836425781
      ],
      "type": "VEC3"
    },
    {
      "bufferView": 2,
      "byteOffset": 5912328,
      "componentType": 5126,
      "count": 65532,
      "max": [
        0.99994295835495,
        0.8990970253944397,
        0.9999905228614807
      ],
      "min": [
        -0.999984085559845,
        -0.9999294877052307,
        -0.9999973773956299
      ],
      "type": "VEC3"
    },
    {
      "bufferView": 1,
      "byteOffset": 1708648,
      "componentType": 5126,
      "count": 65532,
      "max": [
        1.0,
        1.0
      ],
      "min": [
        0.0,
        0.0
      ],
      "type": "VEC2"
    },
    {
      "bufferView": 0,
      "byteOffset": 3599280,
      "componentType": 5125,
      "count": 208134,
      "type": "SCALAR"
    },
    {
      "bufferView": 2,
      "byteOffset": 6698712,
      "componentType": 5126,
      "count": 65534,
      "max": [
        392.9219970703125,
        876.9168701171875,
        362.58831787109375
      ],
      "min": [
        -392.1163635253906,
        347.99163818359375,
        -397.5743103027344
      ],
      "type": "VEC3"
    },
    {
      "bufferView": 2,
      "byteOffset": 7485120,
      "componentType": 5126,
      "count": 65534,
      "max": [
        0.9999622702598572,
        0.8795621991157532,
        0.9999817609786987
      ],
      "min": [
        -0.999980092048645,
        -0.9998847842216492,
        -0.9999085664749146
      ],
      "type": "VEC3"
    },
    {
      "bufferView": 1,
      "byteOffset": 2232904,
      "componentType": 5126,
      "count": 65534,
      "max": [
        1.0,
        1.0
      ],
      "min": [
        0.0,
        0.0
      ],
      "type": "VEC2"
    },
    {
      "bufferView": 0,
      "byteOffset": 4431816,
      "componentType": 5125,
      "count": 208155,
      "type": "SCALAR"
    },
    {
      "bufferView": 2,
      "byteOffset": 8271528,
      "componentType": 5126,
      "count": 65532,
      "max": [
        454.1545104980469,
        935.8453369140625,
        458.0418395996094
      ],
      "min": [
        -274.8718566894531,
        377.1444396972656,
        -150.54324340820313
      ],
      "type": "VEC3"
    },
    {
      "bufferView": 2,
      "byteOffset": 9057912,
      "componentType": 5126,
      "count": 65532,
      "max": [
        0.9999632239341736,
        0.8744544982910156,
        0.999858558177948
      ],
      "min": [
        -0.9999730587005615,
        -0.9999485611915588,
        -0.9999771118164063
      ],
      "type": "VEC3"
    },
    {
      "bufferView": 1,
      "byteOffset": 2757176,
      "componentType": 5126,
      "count": 65532,
      "max": [
        1.0,
        1.0
      ],
      "min": [
        0.0,
        0.0
      ],
      "type": "VEC2"
    },
    {
      "bufferView": 0,
      "byteOffset": 5264436,
      "componentType": 5125,
      "count": 208131,
      "type": "SCALAR"
    },
    {
      "bufferView": 2,
      "byteOffset": 9844296,
      "componentType": 5126,
      "count": 65534,
      "max": [
        339.6554260253906,
        1016.2325439453125,
        261.8324279785156
      ],
      "min": [
        -395.2385559082031,
        573.3135375976563,
        -319.23931884765625
      ],
      "type": "VEC3"
    },
    {
      "bufferView": 2,
      "byteOffset": 10630704,
      "componentType": 5126,
      "count": 65534,
      "max": [
        0.9999738335609436,
        0.9069007635116577,
        0.9999987483024597
      ],
      "min": [
        -0.9998872876167297,
        -0.9998413324356079,
        -0.9999949932098389
      ],
      "type": "VEC3"
    },
    {
      "bufferView": 1,
      "byteOffset": 3281432,
      "componentType": 5126,
      "count": 65534,
      "max": [
        1.0,
        1.0
      ],
      "min": [
        0.0,
        0.0
      ],
      "type": "VEC2"
    },
    {
      "bufferView": 0,
      "byteOffset": 6096960,
      "componentType": 5125,
      "count": 208155,
      "type": "SCALAR"
    },
    {
      "bufferView": 2,
      "byteOffset": 11417112,
      "componentType": 5126,
      "count": 13294,
      "max": [
        348.5321960449219,
        957.3507080078125,
        282.4582214355469
      ],
      "min": [
        1.5644041299819946,
        631.4284057617188,
        -96.8095932006836
      ],
      "type": "VEC3"
    },
    {
      "bufferView": 2,
      "byteOffset": 11576640,
      "componentType": 5126,
      "count": 13294,
      "max": [
        0.9999378323554993,
        0.8815083503723145,
        0.999850332736969
      ],
      "min": [
        -0.9999356269836426,
        -0.9999041557312012,
        -0.9998756051063538
      ],
      "type": "VEC3"
    },
    {
      "bufferView": 1,
      "byteOffset": 3805704,
      "componentType": 5126,
      "count": 13294,
      "max": [
        1.0,
        1.0
      ],
      "min": [
        0.0,
        0.0
      ],
      "type": "VEC2"
    },
    {
      "bufferView": 0,
      "byteOffset": 6929580,
      "componentType": 5125,
      "count": 42225,
      "type": "SCALAR"
    }
  ],
  "asset": {
    "extras": {
      "author": "H U N T E R 7 (https://sketchfab.com/hunter7)",
      "license": "CC-BY-4.0 (http://creativecommons.org/licenses/by/4.0/)",
      "source": "https://sketchfab.com/3d-models/pink-tree-e4ea2aef9b964e61b128f4b4750136ea",
      "title": "Pink Tree"
    },
    "generator": "Sketchfab-13.31.0",
    "version": "2.0"
  },
  "bufferViews": [
    {
      "buffer": 0,
      "byteLength": 7098480,
      "name": "floatBufferViews",
      "target": 34963
    },
    {
      "buffer": 0,
      "byteLength": 3912056,
      "byteOffset": 7098480,
      "byteStride": 8,
      "name": "floatBufferViews",
      "target": 34962
    },
    {
      "buffer": 0,
      "byteLength": 11736168,
      "byteOffset": 11010536,
      "byteStride": 12,
      "name": "floatBufferViews",
      "target": 34962
    }
  ],
  "buffers": [
    {
      "byteLength": 22746704,
      "uri": "scene.bin"
    }
  ],
  "images": [
    {
      "uri": "textures/Trunk_baseColor.jpeg"
    },
    {
      "uri": "textures/Leaf_baseColor.jpeg"
    }
  ],
  "materials": [
    {
      "doubleSided": true,
      "name": "Trunk",
      "pbrMetallicRoughness": {
        "baseColorTexture": {
          "index": 0
        },
        "metallicFactor": 0.0,
        "roughnessFactor": 0.8942628736559436
      }
    },
    {
      "doubleSided": true,
      "name": "Leaf",
      "pbrMetallicRoughness": {
        "baseColorTexture": {
          "index": 1
        },
        "metallicFactor": 0.0,
        "roughnessFactor": 0.9519111604702091
      }
    }
  ],
  "meshes": [
    {
      "name": "acer tree_Trunk_0",
      "primitives": [
        {
          "attributes": {
            "NORMAL": 1,
            "POSITION": 0,
            "TEXCOORD_0": 2
          },
          "indices": 3,
          "material": 0,
          "mode": 4
        }
      ]
    },
    {
      "name": "acer tree_Trunk_0",
      "primitives": [
        {
          "attributes": {
            "NORMAL": 5,
            "POSITION": 4,
            "TEXCOORD_0": 6
          },
          "indices": 7,
          "material": 0,
          "mode": 4
        }
      ]
    },
    {
      "name": "acer tree_Trunk_0",
      "primitives": [
        {
          "attributes": {
            "NORMAL": 9,
            "POSITION": 8,
            "TEXCOORD_0": 10
          },
          "indices": 11,
          "material": 0,
          "mode": 4
        }
      ]
    },
    {
      "name": "acer tree_Trunk_0",
      "primitives": [
        {
          "attributes": {
            "NORMAL": 13,
            "POSITION": 12,
            "TEXCOORD_0": 14
          },
          "indices": 15,
          "material": 0,
          "mode": 4
        }
      ]
    },
    {
      "name": "acer tree_Leaf_0",
      "primitives": [
        {
          "attributes": {
            "NORMAL": 17,
            "POSITION": 16,
            "TEXCOORD_0": 18
          },
          "indices": 19,
          "material": 1,
          "mode": 4
        }
      ]
    },
    {
      "name": "acer tree_Leaf_0",
      "primitives": [
        {
          "attributes": {
            "NORMAL": 21,
            "POSITION": 20,
            "TEXCOORD_0": 22
          },
          "indices": 23,
          "material": 1,
          "mode": 4
        }
      ]
    },
    {
      "name": "acer tree_Leaf_0",
      "primitives": [
        {
          "attributes": {
            "NORMAL": 25,
            "POSITION": 24,
            "TEXCOORD_0": 26
          },
          "indices": 27,
          "material": 1,
          "mode": 4
        }
      ]
    },
    {
      "name": "acer tree_Leaf_0",
      "primitives": [
        {
          "attributes": {
            "NORMAL": 29,
            "POSITION": 28,
            "TEXCOORD_0": 30
          },
          "indices": 31,
          "material": 1,
          "mode": 4
        }
      ]
    },
    {
      "name": "acer tree_Leaf_0",
      "primitives": [
        {
          "attributes": {
            "NORMAL": 33,
            "POSITION": 32,
            "TEXCOORD_0": 34
          },
          "indices": 35,
          "material": 1,
          "mode": 4
        }
      ]
    }
  ],
  "nodes": [
    {
      "children": [
        1
      ],
      "matrix": [
        1.0,
        0.0,
        0.0,
        0.0,
        0.0,
        2.220446049250313e-16,
        -1.0,
        0.0,
        0.0,
        1.0,
        2.220446049250313e-16,
        0.0,
        0.0,
        0.0,
        0.0,
        1.0
      ],
      "name": "Sketchfab_model"
    },
    {
      "children": [
        2
      ],
      "matrix": [
        0.009999999776482582,
        0.0,
        0.0,
        0.0,
        0.0,
        0.0,
        0.009999999776482582,
        0.0,
        0.0,
        -0.009999999776482582,
        0.0,
        0.0,
        0.0,
        0.0,
        0.0,
        1.0
      ],
      "name": "17af189e493848c0a980bbeb31442cd2.fbx"
    },
    {
      "children": [
        3
      ],
      "name": "RootNode"
    },
    {
      "children": [
        4
      ],
      "matrix": [
        1.0,
        0.0,
        0.0,
        0.0,
        0.0,
        0.9999999999999867,
        1.6292067073209113e-07,
        0.0,
        0.0,
        -1.6292067073209113e-07,
        0.9999999999999867,
        0.0,
        0.0,
        0.0,
        0.0,
        1.0
      ],
      "name": "Acer_tree"
    },
    {
      "children": [
        5,
        6,
        7,
        8,
        9,
        10,
        11,
        12,
        13
      ],
      "matrix": [
        1.0,
        0.0,
        0.0,
        0.0,
        0.0,
        1.0,
        1.421085474167178e-14,
        0.0,
        0.0,
        -1.421085474167178e-14,
        1.0,
        0.0,
        0.0,
        0.0,
        0.0,
        1.0
      ],
      "name": "acer tree"
    },
    {
      "mesh": 0,
      "name": "acer tree_Trunk_0"
    },
    {
      "mesh": 1,
      "name": "acer tree_Trunk_0"
    },
    {
      "mesh": 2,
      "name": "acer tree_Trunk_0"
    },
    {
      "mesh": 3,
      "name": "acer tree_Trunk_0"
    },
    {
      "mesh": 4,
      "name": "acer tree_Leaf_0"
    },
    {
      "mesh": 5,
      "name": "acer tree_Leaf_0"
    },
    {
      "mesh": 6,
      "name": "acer tree_Leaf_0"
    },
    {
      "mesh": 7,
      "name": "acer tree_Leaf_0"
    },
    {
      "mesh": 8,
      "name": "acer tree_Leaf_0"
    }
  ],
  "samplers": [
    {
      "magFilter": 9729,
      "minFilter": 9987,
      "wrapS": 10497,
      "wrapT": 10497
    }
  ],
  "scene": 0,
  "scenes": [
    {
      "name": "Sketchfab_Scene",
      "nodes": [
        0
      ]
    }
  ],
  "textures": [
    {
      "sampler": 0,
      "source": 0
    },
    {
      "sampler": 0,
      "source": 1
    }
  ]
}
